<?xml version="1.0" standalone="no"?>
<!DOCTYPE svg PUBLIC "-//W3C//DTD SVG 20010904//EN"
 "http://www.w3.org/TR/2001/REC-SVG-20010904/DTD/svg10.dtd">
<svg version="1.0" xmlns="http://www.w3.org/2000/svg"
 width="500.000000pt" height="500.000000pt" viewBox="0 0 500.000000 500.000000"
 preserveAspectRatio="xMidYMid meet">

<g transform="translate(0.000000,500.000000) scale(0.100000,-0.100000)"
fill="#000000" stroke="none">
<path d="M2435 3386 c-53 -23 -85 -71 -85 -124 0 -59 26 -103 73 -125 43 -21
68 -21 110 -3 102 43 116 181 25 240 -35 22 -89 28 -123 12z"/>
<path d="M2855 3164 c-446 -225 -705 -444 -803 -677 -21 -51 -26 -78 -26 -153
-1 -84 1 -95 36 -165 33 -66 141 -200 152 -188 2 2 0 31 -6 64 -21 128 14 294
97 460 116 235 345 481 620 670 125 86 121 86 -70 -11z"/>
<path d="M2040 2962 c-22 -10 -42 -32 -54 -55 -37 -77 17 -157 108 -157 55 0
106 52 106 108 0 47 -29 88 -76 108 -42 18 -42 18 -84 -4z"/>
<path d="M1630 2872 c145 -102 273 -230 335 -337 21 -37 41 -61 43 -54 3 8 17
39 32 70 l28 55 -57 46 c-76 60 -131 97 -226 149 -98 53 -191 96 -155 71z"/>
<path d="M1490 2653 c-23 -55 -36 -63 -105 -63 l-39 0 43 -44 c46 -47 46 -47
25 -130 l-6 -27 52 31 52 31 45 -27 c24 -14 47 -23 50 -21 3 3 0 27 -6 54
l-11 48 47 43 47 42 -39 0 c-71 0 -86 9 -110 64 l-23 51 -22 -52z"/>
<path d="M1680 2333 c-125 -74 -180 -144 -180 -230 0 -70 19 -112 73 -166 111
-111 349 -198 652 -238 135 -17 458 -14 590 6 215 32 348 71 478 138 227 116
279 268 139 406 -32 31 -77 67 -102 80 l-45 25 59 -55 c162 -148 116 -295
-129 -414 -114 -57 -234 -91 -405 -117 -114 -17 -168 -19 -355 -15 -232 5
-338 18 -495 64 -206 59 -366 173 -388 277 -6 30 -7 60 -1 80 12 45 60 108
106 142 72 53 73 59 3 17z"/>
<path d="M2111 1644 c-1 -7 -22 -15 -47 -19 -29 -4 -56 -16 -71 -31 -22 -22
-25 -32 -21 -87 3 -54 1 -62 -16 -65 -10 -2 -23 2 -28 10 -7 9 -8 6 -4 -12 3
-14 6 -43 6 -65 0 -22 4 -35 8 -29 4 6 23 16 43 23 60 19 74 43 71 117 -2 61
-1 64 23 70 19 5 30 1 39 -12 12 -15 13 -10 9 37 -5 53 -11 85 -12 63z"/>
<path d="M1354 1195 c-9 -22 6 -145 17 -145 12 0 12 147 -1 155 -6 3 -13 -1
-16 -10z"/>
<path d="M3620 1131 c0 -47 4 -81 10 -81 6 0 10 31 10 74 0 41 -4 78 -10 81
-6 4 -10 -23 -10 -74z"/>
<path d="M1196 1193 c-3 -3 -6 -24 -6 -45 0 -21 -4 -38 -10 -38 -5 0 -10 18
-10 40 0 22 -4 40 -10 40 -6 0 -10 -29 -10 -66 0 -41 4 -63 10 -59 6 3 10 13
10 21 0 24 17 15 25 -13 7 -26 8 -26 15 -8 11 27 12 122 1 129 -4 3 -11 3 -15
-1z"/>
<path d="M2705 1178 c-4 -14 -5 -44 -3 -69 3 -39 6 -44 28 -44 17 0 26 6 28
20 3 19 2 19 -11 3 -23 -29 -28 -21 -25 42 2 63 -7 89 -17 48z"/>
<path d="M1430 1121 c0 -41 4 -71 10 -71 6 0 10 10 11 23 2 37 7 81 10 96 2 8
-4 17 -13 19 -16 3 -18 -5 -18 -67z"/>
<path d="M1478 1141 c-2 -28 0 -37 9 -34 15 6 18 73 4 73 -5 0 -11 -17 -13
-39z"/>
<path d="M1545 1170 c4 -6 11 -8 16 -5 14 9 11 15 -7 15 -8 0 -12 -5 -9 -10z"/>
<path d="M2628 1173 c7 -3 16 -2 19 1 4 3 -2 6 -13 5 -11 0 -14 -3 -6 -6z"/>
<path d="M2805 1170 c4 -6 11 -8 16 -5 14 9 11 15 -7 15 -8 0 -12 -5 -9 -10z"/>
<path d="M3558 1173 c7 -3 16 -2 19 1 4 3 -2 6 -13 5 -11 0 -14 -3 -6 -6z"/>
<path d="M1894 1145 c-8 -31 11 -78 28 -73 6 2 13 10 14 16 1 7 0 8 -3 2 -11
-23 -23 -8 -23 30 0 43 15 55 23 18 5 -20 5 -20 4 2 -3 35 -34 39 -43 5z"/>
<path d="M2882 1158 c-13 -13 -16 -56 -6 -82 7 -18 30 -21 39 -6 3 6 -1 7 -9
4 -12 -5 -16 0 -16 20 0 16 6 26 15 26 9 0 15 9 14 23 -1 16 -2 18 -6 5 -2
-10 -9 -18 -14 -18 -6 0 -7 9 -4 20 7 23 4 25 -13 8z"/>
<path d="M2977 1164 c-15 -15 -6 -44 19 -60 17 -11 22 -20 15 -27 -7 -7 -16
-6 -27 4 -15 12 -17 12 -12 -1 6 -21 47 -25 54 -6 4 9 -5 24 -22 39 -16 14
-24 29 -20 35 11 19 26 14 26 -8 0 -11 5 -20 11 -20 6 0 9 10 7 23 -3 22 -36
36 -51 21z"/>
<path d="M3701 1156 c-7 -8 -11 -32 -9 -53 2 -30 7 -38 22 -38 11 0 20 6 22
13 1 7 0 8 -3 2 -9 -19 -23 -10 -23 14 0 13 7 26 15 30 8 3 14 13 14 23 -1 17
-2 17 -6 1 -2 -10 -9 -18 -14 -18 -6 0 -7 9 -4 20 7 24 2 26 -14 6z"/>
<path d="M3792 1158 c-18 -18 -15 -30 16 -54 30 -25 23 -46 -10 -25 -17 10
-19 10 -16 -1 3 -7 18 -13 34 -13 38 0 44 27 9 43 -15 7 -25 20 -25 32 0 27
19 25 29 -2 8 -20 10 -21 16 -6 13 34 -26 53 -53 26z"/>
<path d="M1266 1144 c-10 -25 -7 -49 8 -70 14 -18 16 -18 30 -2 9 10 11 13 4
8 -19 -16 -28 -12 -28 14 0 15 7 26 18 29 15 4 15 5 -2 6 -12 1 -16 6 -12 16
3 8 1 15 -3 15 -5 0 -12 -7 -15 -16z"/>
<path d="M1616 1153 c-3 -3 -6 -24 -6 -45 0 -27 4 -38 15 -38 10 0 15 11 15
35 0 24 5 35 15 35 11 0 15 -11 15 -41 0 -24 4 -38 10 -34 12 7 14 72 3 78
-18 10 -60 16 -67 10z"/>
<path d="M2506 1153 c-3 -3 -6 -24 -6 -45 0 -27 4 -38 15 -38 10 0 15 11 15
35 0 24 5 35 15 35 11 0 15 -11 15 -41 0 -24 4 -38 10 -34 12 7 14 72 3 78
-18 10 -60 16 -67 10z"/>
<path d="M1550 1108 c0 -32 3 -39 10 -28 13 20 13 70 0 70 -5 0 -10 -19 -10
-42z"/>
<path d="M1730 1120 c0 -20 5 -30 15 -30 8 0 15 -9 15 -20 0 -22 -15 -27 -23
-7 -4 9 -6 9 -6 0 -1 -19 18 -26 34 -13 17 14 21 100 5 100 -5 0 -10 -11 -10
-25 0 -14 -5 -25 -11 -25 -7 0 -9 10 -7 25 3 14 1 25 -3 25 -5 0 -9 -13 -9
-30z"/>
<path d="M1985 1130 c-8 -25 11 -61 29 -54 33 13 29 74 -4 74 -10 0 -21 -9
-25 -20z m35 -14 c0 -14 -4 -27 -9 -30 -10 -7 -20 23 -14 42 8 21 23 13 23
-12z"/>
<path d="M2080 1115 c0 -44 16 -54 24 -15 7 38 23 39 28 3 3 -19 6 -23 10 -13
22 56 22 56 26 17 4 -43 22 -41 22 3 0 33 -15 47 -34 31 -7 -6 -16 -8 -19 -4
-4 3 -18 8 -32 9 -22 2 -25 -1 -25 -31z"/>
<path d="M2236 1141 c-9 -14 5 -71 15 -65 5 3 9 16 9 29 0 38 19 40 27 3 l7
-33 6 29 c7 39 23 35 31 -6 6 -32 6 -31 8 10 1 30 -3 42 -13 42 -8 0 -18 -5
-21 -10 -4 -6 -12 -7 -18 -3 -19 12 -45 14 -51 4z"/>
<path d="M2620 1111 c0 -23 5 -41 10 -41 6 0 10 14 10 30 0 17 0 33 1 37 0 4
-4 9 -10 11 -7 2 -11 -12 -11 -37z"/>
<path d="M2810 1108 c0 -32 3 -39 10 -28 13 20 13 70 0 70 -5 0 -10 -19 -10
-42z"/>
<path d="M3140 1120 c0 -20 5 -30 15 -30 8 0 15 -9 15 -20 0 -22 -15 -27 -23
-7 -4 9 -6 9 -6 0 -1 -19 18 -26 34 -13 17 14 21 100 5 100 -5 0 -10 -11 -10
-25 0 -14 -5 -25 -11 -25 -7 0 -9 10 -7 25 3 14 1 25 -3 25 -5 0 -9 -13 -9
-30z"/>
<path d="M3238 1133 c-3 -10 -1 -27 3 -38 6 -16 8 -14 8 13 1 17 6 32 12 32 7
0 10 -12 7 -30 -3 -19 -1 -29 6 -27 6 2 11 17 11 33 0 22 -5 30 -21 32 -14 2
-23 -3 -26 -15z"/>
<path d="M3400 1111 c0 -44 19 -58 22 -16 0 14 1 30 2 37 1 6 -5 13 -11 16 -9
2 -13 -9 -13 -37z"/>
<path d="M3446 1119 c9 -44 10 -45 16 -14 3 14 -1 30 -8 36 -12 9 -13 5 -8
-22z"/>
<path d="M3488 1109 c3 -26 8 -37 14 -31 12 12 7 64 -7 69 -7 2 -9 -13 -7 -38z"/>
<path d="M3550 1111 c0 -23 5 -41 10 -41 6 0 10 14 10 30 0 17 0 33 1 37 0 4
-4 9 -10 11 -7 2 -11 -12 -11 -37z"/>
<path d="M2380 1120 c0 -26 17 -60 31 -60 6 0 6 6 0 18 -5 10 -9 26 -8 36 1
11 -4 21 -10 23 -8 3 -13 -4 -13 -17z"/>
<path d="M2436 1124 c-3 -9 -6 -27 -6 -41 0 -39 25 -22 28 20 3 37 -11 50 -22
21z"/>
</g>
</svg>
